<svg width="196" height="202" viewBox="0 0 196 202" fill="none" xmlns="http://www.w3.org/2000/svg">
<path d="M99.389 192.849C116.749 190.999 133.219 183.919 146.009 173.119C158.509 162.549 167.539 148.389 171.739 133.319C175.839 118.599 175.369 102.959 170.709 89.1588C166.159 75.7188 157.619 63.9788 146.849 55.8788C136.369 47.9988 123.759 43.5388 111.389 42.9988C99.379 42.4788 87.549 45.6588 77.979 51.6688C68.719 57.4888 61.529 65.9788 57.529 75.3788C53.669 84.4488 52.739 94.3988 54.639 103.349C56.469 111.949 60.889 119.639 66.829 125.099C72.509 130.329 79.579 133.529 86.539 134.349C93.159 135.129 99.679 133.749 104.839 130.769C109.699 127.959 113.359 123.729 115.209 119.159C116.929 114.899 117.079 110.349 115.849 106.609C114.719 103.169 112.409 100.429 109.729 99.0488C107.289 97.7988 104.529 97.6988 102.499 98.6788C100.639 99.5788 99.389 101.469 99.389 103.329V94.5488C101.359 91.9288 105.059 89.6088 109.659 88.9488C114.749 88.2188 120.929 89.4988 126.409 93.0888C132.419 97.0288 137.609 103.729 140.199 112.069C143.009 121.109 142.749 132.079 138.599 142.559C134.239 153.539 125.599 163.799 113.939 170.609C101.599 177.819 85.939 181.099 70.129 178.989C53.599 176.769 37.029 168.629 24.309 155.569C11.199 142.089 2.32905 123.429 0.39905 103.349C-1.56095 82.8688 3.76905 61.7988 14.849 44.5188C26.019 27.1188 42.909 13.6488 61.909 6.39878C80.899 -0.831223 101.929 -1.87122 121.119 2.95878C140.189 7.77878 157.459 18.3588 170.249 32.4788C183.209 46.7988 191.579 64.6088 194.639 82.9688C197.659 101.169 195.529 120.109 188.639 137.179C181.779 154.169 170.099 169.559 154.829 180.969C139.499 192.419 120.199 200.059 99.379 201.619V192.839L99.389 192.849Z" fill="url(#paint0_linear_7_7)"/>
<defs>
<linearGradient id="paint0_linear_7_7" x1="0" y1="0" x2="201.538" y2="195.898" gradientUnits="userSpaceOnUse">
<stop stop-color="#FFA6B7"/>
<stop offset="1" stop-color="#1E2AD2"/>
</linearGradient>
</defs>
</svg>
